<?xml version="1.0" standalone="no"?>
<!DOCTYPE svg PUBLIC "-//W3C//DTD SVG 20010904//EN"
 "http://www.w3.org/TR/2001/REC-SVG-20010904/DTD/svg10.dtd">
<svg version="1.0" xmlns="http://www.w3.org/2000/svg"
 width="40.000000pt" height="40.000000pt" viewBox="0 0 40.000000 40.000000"
 preserveAspectRatio="xMidYMid meet">

<g transform="translate(0.000000,40.000000) scale(0.100000,-0.100000)"
fill="#407599" stroke="">
<path d="M70 295 c-11 -13 -8 -15 15 -15 l27 0 -7 -62 c-7 -68 -10 -74 -39
-80 -27 -4 -33 -28 -7 -28 14 0 19 -5 15 -15 -4 -8 -2 -15 4 -15 5 0 12 6 15
14 3 8 27 15 62 18 62 5 87 20 66 41 -10 10 -15 9 -25 -5 -9 -12 -27 -18 -51
-18 l-37 0 7 37 c9 50 12 53 45 53 16 0 32 5 35 10 4 6 -8 10 -28 10 -31 0
-34 3 -30 21 4 13 13 20 27 18 34 -2 44 0 49 14 7 19 -127 22 -143 2z"/>
<path d="M298 244 c-31 -16 -35 -35 -13 -58 21 -20 19 -36 -7 -64 l-23 -25 32
17 c47 24 55 45 31 79 l-21 30 24 18 c29 22 15 24 -23 3z"/>
</g>
</svg>
